<svg width="16" height="16" viewBox="0 0 16 16" fill="none" xmlns="http://www.w3.org/2000/svg">
<path opacity="0.4" d="M10.894 1.33301H5.11398C2.85398 1.33301 1.33398 2.91967 1.33398 5.27967V10.7263C1.33398 13.0797 2.85398 14.6663 5.11398 14.6663H10.894C13.154 14.6663 14.6673 13.0797 14.6673 10.7263V5.27967C14.6673 2.91967 13.154 1.33301 10.894 1.33301" fill="#71AE3D"/>
<path d="M7.20961 10.165C7.06028 10.165 6.91095 10.1083 6.79695 9.99432L5.21495 8.41232C4.98695 8.18432 4.98695 7.81498 5.21495 7.58765C5.44295 7.35965 5.81161 7.35898 6.03961 7.58698L7.20961 8.75698L9.96161 6.00498C10.1896 5.77698 10.5583 5.77698 10.7863 6.00498C11.0143 6.23298 11.0143 6.60232 10.7863 6.83032L7.62228 9.99432C7.50828 10.1083 7.35895 10.165 7.20961 10.165" fill="#71AE3D"/>
</svg>
